<svg id="enOvpf9xSrQ1" xmlns="http://www.w3.org/2000/svg" xmlns:xlink="http://www.w3.org/1999/xlink" viewBox="20 0 400 150" shape-rendering="geometricPrecision" text-rendering="geometricPrecision">

    <defs>
      <linearGradient id='a' gradientUnits='objectBoundingBox' x1='0' y1='0' x2='1' y2='1'>
         <stop offset='0' stop-color='red'>
            <animate attributeName="stop-color"
               values="red;purple;blue;orange;red;" dur="15s" repeatCount="indefinite">
            </animate>
         </stop>
         <stop offset='.5' stop-color='purple'>
            <animate attributeName="stop-color"
               values="purple;blue;orange;red;purple;" dur="15s" repeatCount="indefinite">
            </animate>
         </stop>
         <stop offset='1' stop-color='blue'>
            <animate attributeName="stop-color"
               values="blue;orange;red;purple;blue;" dur="15s" repeatCount="indefinite">
            </animate>
         </stop>
         <animateTransform attributeName="gradientTransform" type="rotate" from="0 .5 .5" to="360 .5 .5"
            dur="15s" repeatCount="indefinite" />
      </linearGradient>
      <linearGradient id='b' gradientUnits='objectBoundingBox' x1='0' y1='1' x2='1' y2='1'>
         <stop offset='0' stop-color='red'>
            <animate attributeName="stop-color"
               values="red;purple;blue;orange;red;" dur="15s" repeatCount="indefinite">
            </animate>
         </stop>
         <stop offset='1' stop-color='purple' stop-opacity="0">
            <animate attributeName="stop-color"
               values="purple;blue;orange;red;purple;" dur="15s" repeatCount="indefinite">
            </animate>
         </stop>
         <animateTransform attributeName="gradientTransform" type="rotate" values="360 .5 .5;0 .5 .5" class="ignore"
            dur="15s" repeatCount="indefinite" />
      </linearGradient>
   </defs>

    <path class="path" d="M54.543273,29.258155c-.033848.203087-5.306693,69.508146,10.730437,66.835294c14.54971-2.42495,24.318006-25.951406,27.592553-38.016406c1.528182-5.630555,3.164351-12.408489,3.801352-16.943625.298508-2.125229,2.360846-15.720955,2.360846-13.574865c0,6.72036-3.465365,82.266833,18.396915,67.691983c14.49595-9.66396,26.277489-33.565447,31.193659-49.952687c1.80799-6.02664,1.60271-18.16565-6.14311-20.98231-16.63232-6.04812-18.509111,21.141872-11.967097,29.997524.097919.132549,3.548456,5.59399,9.733239,6.542013c9.848596,1.509625,27.083156-.333607,36.285941,1.787001c4.615887,1.063644,6.854998,3.1973,7.500114,7.18529.53551,3.310425-.363798,5.299838-2.345877,7.21357-3.401521,3.284228-6.791514,3.765381-12.890793,2.65109-.228263.006917-6.251872-1.568255-8.054189-5.044152-.867567-3.36711-1.05841-4.146744.30895-6.425676c1.50188-2.503132,3.938396-4.333711,4.601958-4.930917c3.638196-3.177665-1.050201.754832-2.822414,2.559863-1.187848,1.209845-2.123283,2.82098-2.559864,3.74134-1.214294,2.559864-1.903488,6.727847-1.805032,9.550261.233825,6.702993,2.120559,13.0054,8.285279,16.43025c22.73834,12.63242,49.64016-32.428121,55.94647-49.770471c2.55063-7.01424,8.561184-26.152258-2.505436-29.170428-8.64865-2.35872-11.981813,13.161122-13.797393,18.153982-4.062198,11.171067-11.176396,48.619041.741264,61.092404c1.904055,1.992839,4.994871,2.581731,8.465922,2.581731c11.756506-2.706534,12.751543-37.019487,30.065043-35.576697c1.134423.094537,4.623321,1.500011,5.137023,3.102763.727653,2.270281-.551632,5.576265-.042053,4.04754c1.865211-5.595633-3.340064-7.426422-7.971703-7.047562-1.741991.142492-5.386501,2.254467-6.503391,3.309307-5.57326,5.263632-6.458701,18.881834-2.773903,25.453056c1.837387,3.276672,5.95709,6.87829,9.703301,7.185356c15.230498.798373,16.966392-13.887918,22.948462-24.997478c1.27086-2.36016,2.009505-5.959223,4.64265-8.453781c2.971749-2.81534,13.395495-2.821767,11.133091-2.848062-1.226926-.01426-8.201769-.101257-11.133091,2.848062-2.36363,2.378142-4.261228,7.103807-4.641092,8.395353-2.6628,9.05353.131866,22.594313,11.462246,23.465883c12.32679.94822,18.419701-20.440255,12.98934-30.375964-1.768353-3.235483-10.236773-6.297919-9.809461-2.879427.142437,2.373953.379833,3.038661,1.614288,5.222697c1.087043,1.92323,3.56093,3.418493,5.317655,4.652949c3.940763,2.136557,12.774336,4.969841,15.965461,4.650727c4.28316-.42832,8.729309-18.001342,10.464439-17.753462c2.34811.33544-3.43814,25.512717-3.660528,30.794435-.028195.669626-.315413,2.849366-.348669,4.993144-.024837,1.601043.091067,1.988284.091067-.166969-.038407-1.843517.080451-3.956202.964281-7.090148.266087-.943509.56735-1.809004.888207-2.664622.592139-1.579036.888208-2.862002,2.417898-4.934486c2.121829-3.256761,3.437224-4.660096,7.390858-9.817008c3.404796-4.441037,7.185101-8.464851,12.194537-7.694173c8.44534,1.29928,3.506479,18.877936,2.725338,23.850817-.482641,3.072576-.882379,11.857127-.976649,9.54749-.094271-2.168231,1.812706-12.828616,2.213676-14.131766.497552-1.617043,1.615401-3.545524,3.638314-5.675769c1.506013-1.585921,2.895889-3.795038,4.479639-5.347734c4.444461-4.357314,9.226454-8.9937,13.026836-7.636421c4.192544,1.497337,4.036499,6.620411,2.395739,14.973374-1.647071,8.38509-4.192544,11.379765.350148,16.11779c2.943995,4.844935,29.354261-11.35016,35.712701-18.4151c2.68505-2.98339,6.36162-12.253868.35645-14.255588-10.027675-3.342558-16.870187,4.27818-16.920198,13.447493-.049231,9.026133,6.059489,21.062949,14.260254,21.796762c7.554314.675968,14.04793-7.222406,17.059735-12.918376" transform="translate(-17.93999 12.908937)" paint-order="stroke fill markers" fill="none" stroke='url(#a)' stroke-width="1.612" stroke-linecap="round"/>

    <path class="path" d="M54.543273,29.258155c-.033848.203087-5.306693,69.508146,10.730437,66.835294c14.54971-2.42495,24.318006-25.951406,27.592553-38.016406c1.528182-5.630555,3.164351-12.408489,3.801352-16.943625.298508-2.125229,2.360846-15.720955,2.360846-13.574865c0,6.72036-3.465365,82.266833,18.396915,67.691983c14.49595-9.66396,26.277489-33.565447,31.193659-49.952687c1.80799-6.02664,1.60271-18.16565-6.14311-20.98231-16.63232-6.04812-18.509111,21.141872-11.967097,29.997524.097919.132549,3.548456,5.59399,9.733239,6.542013c9.848596,1.509625,27.083156-.333607,36.285941,1.787001c4.615887,1.063644,6.854998,3.1973,7.500114,7.18529.53551,3.310425-.363798,5.299838-2.345877,7.21357-3.401521,3.284228-6.791514,3.765381-12.890793,2.65109-.228263.006917-6.251872-1.568255-8.054189-5.044152-.867567-3.36711-1.05841-4.146744.30895-6.425676c1.50188-2.503132,3.938396-4.333711,4.601958-4.930917c3.638196-3.177665-1.050201.754832-2.822414,2.559863-1.187848,1.209845-2.123283,2.82098-2.559864,3.74134-1.214294,2.559864-1.903488,6.727847-1.805032,9.550261.233825,6.702993,2.120559,13.0054,8.285279,16.43025c22.73834,12.63242,49.64016-32.428121,55.94647-49.770471c2.55063-7.01424,8.561184-26.152258-2.505436-29.170428-8.64865-2.35872-11.981813,13.161122-13.797393,18.153982-4.062198,11.171067-11.176396,48.619041.741264,61.092404c1.904055,1.992839,4.994871,2.581731,8.465922,2.581731c11.756506-2.706534,12.751543-37.019487,30.065043-35.576697c1.134423.094537,4.623321,1.500011,5.137023,3.102763.727653,2.270281-.551632,5.576265-.042053,4.04754c1.865211-5.595633-3.340064-7.426422-7.971703-7.047562-1.741991.142492-5.386501,2.254467-6.503391,3.309307-5.57326,5.263632-6.458701,18.881834-2.773903,25.453056c1.837387,3.276672,5.95709,6.87829,9.703301,7.185356c15.230498.798373,16.966392-13.887918,22.948462-24.997478c1.27086-2.36016,2.009505-5.959223,4.64265-8.453781c2.971749-2.81534,13.395495-2.821767,11.133091-2.848062-1.226926-.01426-8.201769-.101257-11.133091,2.848062-2.36363,2.378142-4.261228,7.103807-4.641092,8.395353-2.6628,9.05353.131866,22.594313,11.462246,23.465883c12.32679.94822,18.419701-20.440255,12.98934-30.375964-1.768353-3.235483-10.236773-6.297919-9.809461-2.879427.142437,2.373953.379833,3.038661,1.614288,5.222697c1.087043,1.92323,3.56093,3.418493,5.317655,4.652949c3.940763,2.136557,12.774336,4.969841,15.965461,4.650727c4.28316-.42832,8.729309-18.001342,10.464439-17.753462c2.34811.33544-3.43814,25.512717-3.660528,30.794435-.028195.669626-.315413,2.849366-.348669,4.993144-.024837,1.601043.091067,1.988284.091067-.166969-.038407-1.843517.080451-3.956202.964281-7.090148.266087-.943509.56735-1.809004.888207-2.664622.592139-1.579036.888208-2.862002,2.417898-4.934486c2.121829-3.256761,3.437224-4.660096,7.390858-9.817008c3.404796-4.441037,7.185101-8.464851,12.194537-7.694173c8.44534,1.29928,3.506479,18.877936,2.725338,23.850817-.482641,3.072576-.882379,11.857127-.976649,9.54749-.094271-2.168231,1.812706-12.828616,2.213676-14.131766.497552-1.617043,1.615401-3.545524,3.638314-5.675769c1.506013-1.585921,2.895889-3.795038,4.479639-5.347734c4.444461-4.357314,9.226454-8.9937,13.026836-7.636421c4.192544,1.497337,4.036499,6.620411,2.395739,14.973374-1.647071,8.38509-4.192544,11.379765.350148,16.11779c2.943995,4.844935,29.354261-11.35016,35.712701-18.4151c2.68505-2.98339,6.36162-12.253868.35645-14.255588-10.027675-3.342558-16.870187,4.27818-16.920198,13.447493-.049231,9.026133,6.059489,21.062949,14.260254,21.796762c7.554314.675968,14.04793-7.222406,17.059735-12.918376" transform="translate(-17.93999 12.908937)" paint-order="stroke fill markers" fill="none" stroke='url(#b)' stroke-width="1.612" stroke-linecap="round"/>
</svg>